<svg height="512pt" viewBox="-46 0 512 512.001" width="512pt" xmlns="http://www.w3.org/2000/svg"><path d="m395.136719 210.234375c-5.554688-28.75-31.105469-50.382813-60.996094-50.382813h-13.539063v-36.136718c0-13.265625-10.792968-24.0625-24.058593-24.0625h-2.835938v-13.566406c0-4.328126-.445312-8.652344-1.332031-12.847657-.851562-4.050781-4.832031-6.65625-8.882812-5.792969-4.054688.851563-6.648438 4.828126-5.792969 8.882813.667969 3.183594 1.007812 6.464844 1.007812 9.757813v13.566406h-19.914062v-8.140625c0-11.140625-7.507813-20.550781-17.722657-23.453125 1.734376-3.441406 2.71875-7.328125 2.71875-11.4375v-16.050782c7.609376 2.046876 14.667969 5.992188 20.410157 11.5 1.457031 1.394532 3.324219 2.085938 5.191406 2.085938 1.972656 0 3.941406-.773438 5.414063-2.308594 2.867187-2.988281 2.769531-7.738281-.222657-10.605468-8.539062-8.1875-19.289062-13.753907-30.804687-16.0625-.179688-13.914063-11.550782-25.179688-25.507813-25.179688h-15.851562c-13.921875 0-25.269531 11.214844-25.503907 25.085938-28.746093 5.554687-50.375 31.105468-50.375 61v13.566406h-2.835937c-13.265625 0-24.058594 10.796875-24.058594 24.0625v36.136718h-13.566406c-29.894531 0-55.441406 21.632813-60.996094 50.382813-13.871093.234375-25.082031 11.582031-25.082031 25.503906v15.855469c0 13.953125 11.257812 25.316406 25.164062 25.507812 2.765626 14.023438 10.230469 26.554688 21.472657 35.808594 1.398437 1.148438 3.082031 1.707032 4.761719 1.707032 2.164062 0 4.3125-.933594 5.796874-2.734376 2.632813-3.199218 2.171876-7.925781-1.027343-10.558593-7.738281-6.363281-13.109375-14.777344-15.609375-24.214844h16.058594c4.109374 0 7.996093-.980469 11.4375-2.71875 2.902343 10.21875 12.3125 17.726563 23.449218 17.726563h8.144532v19.917968h-13.570313c-2.769531 0-5.542969-.242187-8.246094-.71875-4.078125-.710937-7.96875 2.003906-8.6875 6.085938-.71875 4.078125 2.007813 7.96875 6.085938 8.6875 3.558593.628906 7.210937.945312 10.847656.945312h13.566406v59.082032c0 13.265624 10.792969 24.0625 24.0625 24.0625h2.832031v15.734374c0 15.660157 5.847657 30.621094 16.460938 42.121094 8.96875 9.722656 20.667969 16.238282 33.46875 18.785156.183594 13.914063 11.550781 25.179688 25.507812 25.179688h15.851563c13.925781 0 25.273437-11.214844 25.507813-25.085938 28.746093-5.558593 50.371093-31.109374 50.371093-61v-15.734374h2.835938c13.265625 0 24.058593-10.796876 24.058593-24.0625v-15.226563c0-4.140625-3.355468-7.5-7.5-7.5-4.140624 0-7.5 3.359375-7.5 7.5v15.226563c0 4.996093-4.0625 9.0625-9.058593 9.0625h-2.835938v-33.765626c0-6.664062-2.597656-12.933593-7.3125-17.652343-4.710937-4.710938-10.976562-7.304688-17.644531-7.304688-13.761719 0-24.957031 11.195313-24.957031 24.957031v33.765626h-120.085938c-4.996093 0-9.0625-4.066407-9.0625-9.0625v-262.402344c0-4.996094 4.066407-9.0625 9.0625-9.0625h2.832031v35.929687c0 6.667969 2.597657 12.9375 7.3125 17.652344 4.710938 4.710937 10.976563 7.304687 17.644532 7.304687 13.761718 0 24.957031-11.195312 24.957031-24.957031v-35.929687h120.089844c4.996093 0 9.058593 4.066406 9.058593 9.0625v43.632812l-.027343 34.917969c0 .203125.011719.40625.027343.609375v81.140625c-.015624.199219-.027343.394531-.027343.597656v34.917969c0 .203125.011719.398438.027343.597656v21.65625c0 4.144532 3.359376 7.5 7.5 7.5 4.144532 0 7.5-3.355468 7.5-7.5v-14.753906h13.539063c15.660156 0 30.617187-5.84375 42.117187-16.457031 9.722657-8.972657 16.238282-20.675781 18.785157-33.472657 13.910156-.1875 25.171875-11.554687 25.171875-25.507812v-15.855469c0-13.921875-11.210938-25.269531-25.078125-25.503906zm-253.597657 215.675781v-13.566406h19.914063v8.140625c0 11.140625 7.511719 20.550781 17.726563 23.453125-1.734376 3.445312-2.71875 7.332031-2.71875 11.445312v16.035157c-20.121094-5.441407-34.921876-24.042969-34.921876-45.507813zm76.289063 71.089844h-15.851563c-5.796874 0-10.515624-4.71875-10.515624-10.515625v-31.105469c0-5.789062 4.707031-10.503906 10.496093-10.515625h15.890625c5.789063.011719 10.496094 4.722657 10.496094 10.515625v24.800782.058593 6.246094c0 5.796875-4.71875 10.515625-10.515625 10.515625zm40.964844-135.585938c0-5.492187 4.46875-9.957031 9.957031-9.957031 2.660156 0 5.160156 1.03125 7.035156 2.910157 1.886719 1.882812 2.921875 4.386718 2.921875 7.046874v64.496094c0 21.683594-14.992187 40.351563-35.363281 45.632813v-16.164063c0-4.066406-.960938-7.914062-2.664062-11.332031 10.417968-2.769531 18.113281-12.28125 18.113281-23.5625zm-15 59.070313c0 5.171875-4.203125 9.378906-9.367188 9.378906h-16.558593c-.015626 0-.027344 0-.039063 0h-15.851563c-.011718 0-.023437 0-.039062 0h-16.113281c-5.167969 0-9.371094-4.207031-9.371094-9.378906v-10.308594h26.960937v4.085938c0 4.140625 3.355469 7.5 7.5 7.5 4.140626 0 7.5-3.359375 7.5-7.5v-4.085938h25.378907zm-157.714844-245.632813h13.542969l.019531 19.917969h-8.136719c-11.277344 0-20.789062 7.699219-23.558594 18.113281-3.417968-1.699218-7.261718-2.660156-11.328124-2.660156h-16.167969c5.28125-20.375 23.949219-35.371094 45.628906-35.371094zm-29.460937 87.257813h-31.101563c-5.796875 0-10.515625-4.71875-10.515625-10.515625v-15.855469c0-5.800781 4.71875-10.515625 10.515625-10.515625h6.242187.0625 24.792969c5.761719 0 10.449219 4.65625 10.511719 10.398438v16.089844c-.0625 5.742187-4.75 10.398437-10.507812 10.398437zm34.886718 15.003906c-5.171875 0-9.378906-4.203125-9.378906-9.367187v-15.921875c0-.078125.003906-.152344.003906-.230469v-15.855469c0-.078125-.003906-.152343-.003906-.230469v-16.367187c0-5.167969 4.207031-9.371094 9.378906-9.371094h8.140625v25.386719h-1.910156c-4.144531 0-7.5 3.355469-7.5 7.5 0 4.140625 3.355469 7.5 7.5 7.5h1.910156v26.960938h-8.140625zm110.917969-262.113281h15.851563c5.796874 0 10.515624 4.71875 10.515624 10.515625v31.105469c0 5.773437-4.675781 10.46875-10.441406 10.511718h-16.003906c-5.761719-.042968-10.4375-4.738281-10.4375-10.511718v-24.816406c0-.003907 0-.007813 0-.007813v-6.28125c0-5.796875 4.714844-10.515625 10.515625-10.515625zm-40.96875 135.582031c0 5.492188-4.464844 9.957031-9.957031 9.957031-2.660156 0-5.15625-1.03125-7.035156-2.910156-1.882813-1.882812-2.921876-4.386718-2.921876-7.046875v-64.496093c0-21.683594 14.996094-40.351563 35.367188-45.632813v16.167969c0 4.066406.960938 7.914062 2.660156 11.328125-10.414062 2.773437-18.113281 12.28125-18.113281 23.5625zm15-59.070312c0-5.171875 4.203125-9.378907 9.371094-9.378907h16.441406c.050781 0 .101563.003907.15625.003907h15.851563c.050781 0 .101562-.003907.152343-.003907h16c5.164063 0 9.367188 4.207032 9.367188 9.378907v8.144531h-26.957031v-1.917969c0-4.140625-3.359376-7.5-7.5-7.5-4.144532 0-7.5 3.359375-7.5 7.5v1.917969h-25.378907v-8.144531zm157.6875 83.339843c21.679687 0 40.347656 15 45.625 35.371094h-16.167969c-4.0625 0-7.910156.960938-11.324218 2.660156-2.773438-10.414062-12.28125-18.113281-23.5625-18.113281h-8.109376v-19.917969zm-13.539063 75.300782h1.882813c4.140625 0 7.5-3.355469 7.5-7.5 0-4.140625-3.359375-7.5-7.5-7.5h-1.882813v-25.382813h8.109376c5.171874 0 9.378906 4.203125 9.378906 9.371094v16.289063c0 .101562-.007813.207031-.007813.308593v15.855469c0 .101562.007813.203125.007813.308594v15.84375c0 5.164062-4.207032 9.367187-9.378906 9.367187h-8.109376zm13.539063 61.878906h-13.539063v-19.917969h8.109376c11.136718 0 20.546874-7.503906 23.453124-17.722656 3.441407 1.734375 7.324219 2.71875 11.433594 2.71875h16.042969c-5.4375 20.125-24.039063 34.921875-45.5 34.921875zm71.074219-60.4375c0 5.800781-4.71875 10.515625-10.515625 10.515625h-31.101563c-5.746094 0-10.421875-4.632813-10.507812-10.359375v-16.164062c.082031-5.726563 4.761718-10.363282 10.507812-10.363282h24.765625.171875 6.164063c5.796875 0 10.515625 4.71875 10.515625 10.515625zm0 0"/><path d="m221.9375 258.335938 2.800781-2.339844 3.828125-3.65625c.785156-.78125 1.992188-2.171875 3.617188-4.171875 1.625-1.996094 2.855468-3.804688 3.691406-5.410157.839844-1.609374 1.625-3.585937 2.363281-5.929687.738281-2.339844 1.105469-4.726563 1.105469-7.167969 0-7.117187-2.730469-13.019531-8.191406-17.699218-5.460938-4.683594-12.777344-7.023438-21.941406-7.023438-8.191407 0-14.726563 1.851562-19.601563 5.558594-4.878906 3.707031-7.316406 7.609375-7.316406 11.703125 0 2.246093.753906 3.976562 2.257812 5.195312 1.507813 1.21875 3.1875 1.828125 5.03125 1.828125 1.457031 0 2.742188-.496094 3.863281-1.492187 1.117188-.996094 2.0625-2.058594 2.84375-3.1875.777344-1.128907 2.234376-2.191407 4.375-3.1875 2.136719-.996094 4.808594-1.496094 8.015626-1.496094 4.566406 0 8.210937 1.085937 10.933593 3.257813 2.71875 2.167968 4.082031 5.230468 4.082031 9.183593 0 2.3125-.5625 4.554688-1.683593 6.722657-1.121094 2.171874-2.246094 3.8125-3.363281 4.917968-1.125 1.109375-2.804688 2.628906-5.050782 4.554688l-4.238281 3.472656c-5.855469 5.207031-8.777344 12.824219-8.777344 22.851562 0 3.085938.511719 5.207032 1.535157 6.363282 1.023437 1.15625 2.753906 1.734375 5.191406 1.734375 4.875 0 7.316406-1.757813 7.316406-5.265625 0-4.976563.386719-8.78125 1.167969-11.414063.78125-2.632812 2.828125-5.269531 6.144531-7.902343zm0 0"/><path d="m207.457031 293.449219c-2.730469 0-4.925781.976562-6.582031 2.925781-1.660156 1.953125-2.488281 4.292969-2.488281 7.023438 0 2.632812.828125 4.949218 2.488281 6.949218 1.65625 2 3.851562 2.996094 6.582031 2.996094 2.726563 0 5.070313-.996094 7.019531-2.996094 1.949219-2 2.925782-4.316406 2.925782-6.949218 0-2.730469-.976563-5.070313-2.925782-7.023438-1.949218-1.949219-4.292968-2.925781-7.019531-2.925781zm0 0"/></svg>